<?xml version="1.0" encoding="utf-8"?>
<!-- Generator: Adobe Illustrator 21.0.0, SVG Export Plug-In . SVG Version: 6.00 Build 0)  -->
<svg version="1.1" id="Layer_1" xmlns="http://www.w3.org/2000/svg" xmlns:xlink="http://www.w3.org/1999/xlink" x="0px" y="0px"
	 viewBox="0 0 40 40" style="enable-background:new 0 0 40 40;" xml:space="preserve">
<style type="text/css">
	.st0{fill:#FFFFFF;}
</style>
<path class="st0" d="M35.394,32H4.606C4.271,32,4,31.729,4,31.394c0-0.335,0.271-0.606,0.606-0.606h30.788
	c0.335,0,0.606,0.271,0.606,0.606C36,31.729,35.729,32,35.394,32z"/>
<path class="st0" d="M20.606,15.144v-4.96h5.844c0.335,0,0.606-0.271,0.606-0.606c0-0.335-0.271-0.606-0.606-0.606h-12.9
	c-0.335,0-0.606,0.271-0.606,0.606c0,0.335,0.271,0.606,0.606,0.606h5.844v4.96c-7,0.318-12.598,6.111-12.598,13.188
	c0,0.335,0.271,0.606,0.606,0.606s0.606-0.271,0.606-0.606C8.008,21.72,13.388,16.34,20,16.34c6.612,0,11.991,5.38,11.991,11.992
	c0,0.335,0.271,0.606,0.606,0.606s0.606-0.271,0.606-0.606C33.203,21.254,27.606,15.462,20.606,15.144z"/>
</svg>
