<svg xmlns="http://www.w3.org/2000/svg" xmlns:xlink="http://www.w3.org/1999/xlink" width="70" height="40.172" viewBox="0 0 70 40.172">
  <defs>
    <clipPath id="clip-path">
      <rect id="사각형_19" data-name="사각형 19" width="70" height="40.172" fill="none"/>
    </clipPath>
  </defs>
  <g id="그룹_40" data-name="그룹 40" transform="translate(0 -1.567)">
    <g id="그룹_39" data-name="그룹 39" transform="translate(0 1.567)" clip-path="url(#clip-path)">
      <path id="패스_57" data-name="패스 57" d="M919.159,123.636l-.054,0a10.478,10.478,0,0,0-6.24,3.423l-.811-1.181a1.2,1.2,0,0,0-1.129-.56l.029.5-.055-.5-.052,0a10.485,10.485,0,0,0-6.181,3.354l-.87-1.268a1.2,1.2,0,0,0-1.129-.559l.029.5-.053-.5-.054,0a10.48,10.48,0,0,0-6.2,3.38l-1.173-1.708a1.2,1.2,0,0,0-1.129-.56l.029.5-.055-.5-.052,0a10.463,10.463,0,0,0-6.352,3.551,1.454,1.454,0,0,0-.41.847,1.362,1.362,0,0,0,.32.746c.06.087.131.19.22.328,1.058,1.559,3.044,4.485,5.163,7.61,3.164,4.666,6.628,9.772,7.756,11.428a22.822,22.822,0,0,0,2.814,3.321,21.382,21.382,0,0,0,3.253,2.609,6.256,6.256,0,0,0,2.813,1.111c2.236.283,5.3.468,6.13-1.179l.029-.071a1.457,1.457,0,0,0,.054-.7,6,6,0,0,0,2.37.833c2.235.283,5.3.468,6.13-1.179l.029-.071a1.432,1.432,0,0,0-.021-.972,5.887,5.887,0,0,0,2.121.69c2.236.283,5.3.468,6.13-1.179l.029-.071a1.455,1.455,0,0,0-.116-1.181,5.929,5.929,0,0,0,2.215.744c2.236.283,5.3.468,6.13-1.179l.029-.071a1.508,1.508,0,0,0,.073-.493,14.1,14.1,0,0,0,6.812.627A17.051,17.051,0,0,0,955,151.327a5.392,5.392,0,0,0,1.971-2.173,2.281,2.281,0,0,0-.237-2.557,4.543,4.543,0,0,0-2.985-1.189,9.678,9.678,0,0,1-1.383-.259,8.208,8.208,0,0,1-4.7-3.166c-.984-1.444-5.822-8.5-9.709-14.165-2.407-3.511-4.513-6.58-5.275-7.694a1.208,1.208,0,0,0-1.148-.58l-.079.006c-3.816.488-8.567,3.8-10.216,5.989l-.922-1.344a1.2,1.2,0,0,0-1.129-.56m23.343,17.645a6.14,6.14,0,0,1,5.249,2.024,10.572,10.572,0,0,0,4.561,2.7l.065.017c1.124.337,2.7.288,3.489,1.087.849.823.311,2.065-.487,2.784-2.343,2.211-6.076,3.3-9.324,3.477a11.839,11.839,0,0,1-4.821-.98c-2.566-1.261-4.751-3.941-3.951-6.75a6.065,6.065,0,0,1,5.219-4.355m-12.39,2.986c1.971-.373,3.076,1.132,4.054,2.611a42.256,42.256,0,0,0,2.755,3.578l.04.046a10.288,10.288,0,0,0,2.46,2.2c2.039,1.505-.409,1.911-1.758,2.019a9.144,9.144,0,0,1-7.681-3.051,9.541,9.541,0,0,1-2.6-3.515,3.106,3.106,0,0,1,2.728-3.885m-8.258,1.687c1.971-.373,3.076,1.132,4.054,2.611a42.289,42.289,0,0,0,2.755,3.578l.04.046a10.283,10.283,0,0,0,2.46,2.2c2.039,1.505-.409,1.911-1.758,2.019a9.144,9.144,0,0,1-7.681-3.051,9.538,9.538,0,0,1-2.6-3.515,3.106,3.106,0,0,1,2.728-3.885m-8.529,1.48c1.971-.373,3.077,1.132,4.055,2.611a42.208,42.208,0,0,0,2.755,3.578l.04.046a10.286,10.286,0,0,0,2.46,2.2c2.039,1.505-.409,1.911-1.758,2.019a9.144,9.144,0,0,1-7.681-3.051,9.537,9.537,0,0,1-2.6-3.515,3.106,3.106,0,0,1,2.728-3.885m-8.713,8.519a9.537,9.537,0,0,1-2.6-3.515,3.106,3.106,0,0,1,2.728-3.885c1.971-.373,3.076,1.132,4.054,2.611a42.313,42.313,0,0,0,2.755,3.578l.04.046a10.28,10.28,0,0,0,2.46,2.2c2.039,1.505-.409,1.911-1.759,2.019a9.144,9.144,0,0,1-7.681-3.051" transform="translate(-887.244 -119.542)" fill="#fff"/>
    </g>
  </g>
</svg>
