<svg xmlns="http://www.w3.org/2000/svg" width="188.281" height="27.072" viewBox="0 0 188.281 27.072">
  <g id="그룹_634145" data-name="그룹 634145" transform="translate(0)">
    <path id="패스_74190" data-name="패스 74190" d="M317.173.459h-3.279V25.717h19.778V22.388h-16.5Z" transform="translate(-313.894 0.426)" fill="#fff"/>
    <path id="패스_74191" data-name="패스 74191" d="M369.511.459H366.23V25.717h19.778V22.388h-16.5Z" transform="translate(-265.343 0.426)" fill="#fff"/>
    <path id="패스_74192" data-name="패스 74192" d="M353.689,3.786h18.6V.459H350.41V25.717h3.279V14.311h18.623V10.934H353.689Z" transform="translate(-280.019 0.426)" fill="#fff"/>
    <path id="패스_74193" data-name="패스 74193" d="M395.052,0c-7.736,0-15.323,5.043-15.323,13.367,0,8.665,7.342,13.706,15.47,13.706,7.931,0,15.568-4.648,15.568-13.314C410.767,5.143,403.031,0,395.052,0m.245,23.745c-6.217,0-12.287-3.524-12.287-10.329,0-6.51,6.167-10.035,12.042-10.035,6.167,0,12.383,3.572,12.383,10.377,0,6.708-6.117,9.987-12.139,9.987" transform="translate(-252.82)" fill="#fff"/>
    <path id="패스_74194" data-name="패스 74194" d="M399.249.459V3.738h10.184V25.717h3.229V3.738h10.331V.459Z" transform="translate(-234.711 0.426)" fill="#fff"/>
    <path id="패스_74195" data-name="패스 74195" d="M345.091,17.791a9.155,9.155,0,0,1-6.595,2.5c-3.676,0-7.57-1.795-8.22-5.654h19.416c.025-.287.1-.547.1-.848,0-6.483-5.781-9.877-11.491-9.877-5.436,0-11.215,3.368-11.215,9.6,0,6.456,5.741,9.835,11.412,9.835,4.26,0,8.545-1.9,10.369-5.558ZM338.3,6.969c3.425,0,6.845,1.59,7.994,4.607H330.507c1.064-2.992,4.5-4.607,7.794-4.607" transform="translate(-301.656 3.627)" fill="#fff"/>
  </g>
</svg>
