<svg xmlns="http://www.w3.org/2000/svg" xmlns:xlink="http://www.w3.org/1999/xlink" width="22" height="23.435" viewBox="0 0 22 23.435">
  <defs>
    <clipPath id="clip-path">
      <rect id="사각형_464056" data-name="사각형 464056" width="22" height="23.435" fill="none"/>
    </clipPath>
  </defs>
  <g id="그룹_634188" data-name="그룹 634188" transform="translate(-0.09 0.256)">
    <g id="그룹_634187" data-name="그룹 634187" transform="translate(0.09 -0.256)" clip-path="url(#clip-path)">
      <path id="패스_1510467" data-name="패스 1510467" d="M21.83,11.947a1.288,1.288,0,0,1,0-.717,7.048,7.048,0,0,0-.736-5.438,7.063,7.063,0,0,0-4.351-3.355,1.275,1.275,0,0,1-.616-.357A7.037,7.037,0,0,0,11.043,0h0A7.036,7.036,0,0,0,5.961,2.078a1.278,1.278,0,0,1-.619.357A7.039,7.039,0,0,0,.99,5.8a7.022,7.022,0,0,0-.734,5.44,1.286,1.286,0,0,1,0,.717,7.047,7.047,0,0,0,.736,5.438A7.063,7.063,0,0,0,5.345,20.75a1.274,1.274,0,0,1,.616.357,7.027,7.027,0,0,0,5.08,2.084h0a7.03,7.03,0,0,0,5.082-2.08,1.278,1.278,0,0,1,.619-.358,7.242,7.242,0,0,0,5.085-8.805M5.771,3.076a.835.835,0,0,1,.548-.315,6.743,6.743,0,0,1,4.173.835.081.081,0,0,1,.041.065.086.086,0,0,1-.033.074A7.191,7.191,0,0,0,8.275,6.7a.085.085,0,0,1-.09.051,7.246,7.246,0,0,0-3.677.441.087.087,0,0,1-.081-.008.081.081,0,0,1-.036-.068A6.613,6.613,0,0,1,5.771,3.076m8.574,9.739a3.48,3.48,0,0,0,0-2.439l0-.014a.029.029,0,0,1,.01-.031.026.026,0,0,1,.03,0,8.594,8.594,0,0,1,1.452,1.11.215.215,0,0,1,0,.313,8.631,8.631,0,0,1-1.453,1.111.026.026,0,0,1-.03,0,.028.028,0,0,1-.009-.031Zm-3.3,1.755A2.974,2.974,0,1,1,14.019,11.6a2.979,2.979,0,0,1-2.976,2.974m2.75-5.2a.028.028,0,0,1-.032-.007l-.01-.01a3.486,3.486,0,0,0-2.112-1.22l-.016,0A.028.028,0,0,1,11.6,8.1a.026.026,0,0,1,.014-.027,8.6,8.6,0,0,1,1.688-.7.219.219,0,0,1,.062-.009.216.216,0,0,1,.209.165,8.62,8.62,0,0,1,.236,1.812.026.026,0,0,1-.016.025M10.465,8.125l-.014,0A3.485,3.485,0,0,0,8.338,9.348l-.011.011a.028.028,0,0,1-.032.007.025.025,0,0,1-.016-.025,8.591,8.591,0,0,1,.235-1.812.214.214,0,0,1,.271-.156,8.635,8.635,0,0,1,1.689.7.026.026,0,0,1,.014.027.028.028,0,0,1-.022.024m-1.95,7.536a8.6,8.6,0,0,1-.236-1.813.026.026,0,0,1,.016-.025l.011,0a.029.029,0,0,1,.021.009l.01.01a3.484,3.484,0,0,0,2.113,1.22l.015,0a.029.029,0,0,1,.022.024.026.026,0,0,1-.014.027,8.6,8.6,0,0,1-1.688.7.213.213,0,0,1-.169-.02h0a.211.211,0,0,1-.1-.136m3.108-.6.014,0a3.487,3.487,0,0,0,2.113-1.219l.011-.011a.029.029,0,0,1,.021-.009l.011,0a.026.026,0,0,1,.016.025,8.585,8.585,0,0,1-.235,1.812.216.216,0,0,1-.271.156,8.628,8.628,0,0,1-1.689-.7.026.026,0,0,1-.014-.027.029.029,0,0,1,.022-.024M7.747,12.829a.029.029,0,0,1-.01.031.026.026,0,0,1-.03,0,8.593,8.593,0,0,1-1.452-1.11.214.214,0,0,1-.067-.156.211.211,0,0,1,.067-.156,8.642,8.642,0,0,1,1.453-1.111.027.027,0,0,1,.014,0,.027.027,0,0,1,.016.006.029.029,0,0,1,.01.031l0,.014a3.481,3.481,0,0,0,0,2.439Zm8.545-1.705a.142.142,0,0,1-.111-.043,7.193,7.193,0,0,0-1.561-1.213l0,0a.582.582,0,0,1-.289-.505A7.066,7.066,0,0,0,14.053,7.4a.144.144,0,0,1,.018-.119.133.133,0,0,1,.1-.059,6.487,6.487,0,0,1,.736-.042,6.706,6.706,0,0,1,2.379.439.52.52,0,0,1,.327.565A6.6,6.6,0,0,1,16.4,11.066a.141.141,0,0,1-.1.057M13.267,6.7a.14.14,0,0,1-.1.193,7.174,7.174,0,0,0-1.847.751.572.572,0,0,1-.573,0,7.11,7.11,0,0,0-1.838-.747A.14.14,0,0,1,8.82,6.7a6.709,6.709,0,0,1,1.9-2.5.52.52,0,0,1,.654,0A6.665,6.665,0,0,1,13.267,6.7M4.8,7.614a6.735,6.735,0,0,1,2.381-.436,6.338,6.338,0,0,1,.728.041.141.141,0,0,1,.119.179,7.124,7.124,0,0,0-.274,1.961v.009a.582.582,0,0,1-.293.5,7.114,7.114,0,0,0-1.559,1.212.138.138,0,0,1-.111.043.141.141,0,0,1-.1-.057,6.614,6.614,0,0,1-1.215-2.9A.512.512,0,0,1,4.8,7.614m.99,4.444A.134.134,0,0,1,5.9,12.1,7.287,7.287,0,0,0,7.469,13.32a.575.575,0,0,1,.288.5,7.065,7.065,0,0,0,.275,1.972.143.143,0,0,1-.018.119.133.133,0,0,1-.1.059,6.76,6.76,0,0,1-3.115-.4.521.521,0,0,1-.327-.567,6.589,6.589,0,0,1,.806-2.269,6.69,6.69,0,0,1,.406-.621.142.142,0,0,1,.105-.058m3.026,4.433a.14.14,0,0,1,.095-.193,7.19,7.19,0,0,0,1.836-.745l.008,0a.584.584,0,0,1,.583,0,7.113,7.113,0,0,0,1.831.744.14.14,0,0,1,.095.193,6.708,6.708,0,0,1-1.9,2.5.52.52,0,0,1-.654,0,6.667,6.667,0,0,1-1.891-2.492m8.468-.92a6.7,6.7,0,0,1-3.114.4.14.14,0,0,1-.119-.179,7.136,7.136,0,0,0,.274-1.964.582.582,0,0,1,.293-.5,7.065,7.065,0,0,0,1.564-1.22.137.137,0,0,1,.111-.043.141.141,0,0,1,.1.057,6.745,6.745,0,0,1,1.212,2.891.519.519,0,0,1-.325.565m.371-8.391a.088.088,0,0,1-.081.009,7.249,7.249,0,0,0-2.68-.514,6.88,6.88,0,0,0-.994.071.083.083,0,0,1-.089-.051,7.215,7.215,0,0,0-2.219-2.96.087.087,0,0,1-.033-.074.08.08,0,0,1,.04-.065,6.75,6.75,0,0,1,4.171-.829.838.838,0,0,1,.547.316,6.646,6.646,0,0,1,1.374,4.031.08.08,0,0,1-.036.068M15.385,2.164a.08.08,0,0,1-.084.053,7.211,7.211,0,0,0-4.209,1.1.081.081,0,0,1-.089,0A7.268,7.268,0,0,0,7.157,2.2q-.182,0-.363.01a.088.088,0,0,1-.084-.053.081.081,0,0,1,.023-.094,6.691,6.691,0,0,1,1.091-.757,6.688,6.688,0,0,1,7.539.761.081.081,0,0,1,.022.094M3.911,15.116a.08.08,0,0,1-.077,0,6.716,6.716,0,0,1-2.806-3.2.836.836,0,0,1,0-.638,6.718,6.718,0,0,1,2.806-3.2.083.083,0,0,1,.041-.011.081.081,0,0,1,.036.008.086.086,0,0,1,.048.066,7.076,7.076,0,0,0,.808,2.421h0a7.2,7.2,0,0,0,.646.979.082.082,0,0,1,0,.1A7.23,7.23,0,0,0,3.958,15.05a.086.086,0,0,1-.048.066m1.14-11.9a7.21,7.21,0,0,0-1.158,4.2.082.082,0,0,1-.044.077A7.249,7.249,0,0,0,.787,10.6a.084.084,0,0,1-.088.046.082.082,0,0,1-.07-.067A6.583,6.583,0,0,1,.745,7.638h0A6.668,6.668,0,0,1,4.953,3.089a.089.089,0,0,1,.029-.005.082.082,0,0,1,.064.032.083.083,0,0,1,0,.1m-4.42,9.4A.081.081,0,0,1,.7,12.55a.083.083,0,0,1,.088.046,7.154,7.154,0,0,0,3.062,3.1.082.082,0,0,1,.045.077,7.246,7.246,0,0,0,1.157,4.2.083.083,0,0,1,0,.1.082.082,0,0,1-.093.027A6.639,6.639,0,0,1,.631,12.617m3.8,3.39A.086.086,0,0,1,4.509,16a7.142,7.142,0,0,0,3.675.444.084.084,0,0,1,.089.051,7.218,7.218,0,0,0,2.218,2.959.087.087,0,0,1,.033.074.08.08,0,0,1-.04.065,6.751,6.751,0,0,1-4.174.829.836.836,0,0,1-.55-.32,6.713,6.713,0,0,1-1.369-4.026.081.081,0,0,1,.036-.068M6.7,21.023a.084.084,0,0,1,.078-.053h.006a7.206,7.206,0,0,0,4.21-1.1.082.082,0,0,1,.089,0,7.281,7.281,0,0,0,4.221,1.1.086.086,0,0,1,.084.053.081.081,0,0,1-.023.094h0a6.666,6.666,0,0,1-8.641,0,.081.081,0,0,1-.023-.094m4.854-1.5a.087.087,0,0,1,.033-.074,7.193,7.193,0,0,0,2.224-2.961.083.083,0,0,1,.077-.052H13.9A7.234,7.234,0,0,0,17.581,16a.086.086,0,0,1,.081.008.081.081,0,0,1,.036.068,6.71,6.71,0,0,1-1.376,4.035.835.835,0,0,1-.549.317,6.742,6.742,0,0,1-4.18-.834.081.081,0,0,1-.041-.065M18.175,8.07a.082.082,0,0,1,.077,0,6.717,6.717,0,0,1,2.806,3.2.834.834,0,0,1,0,.638,6.716,6.716,0,0,1-2.8,3.2.08.08,0,0,1-.077,0,.086.086,0,0,1-.048-.066,7.2,7.2,0,0,0-1.454-3.4.083.083,0,0,1,0-.1,7.174,7.174,0,0,0,1.454-3.405.086.086,0,0,1,.047-.066m3.281,2.5a.081.081,0,0,1-.07.067.083.083,0,0,1-.088-.046,7.154,7.154,0,0,0-3.059-3.1.082.082,0,0,1-.045-.077,7.121,7.121,0,0,0-1.158-4.2.085.085,0,0,1,.068-.131.086.086,0,0,1,.029.005,6.638,6.638,0,0,1,4.323,7.477m-4.419,9.4a7.147,7.147,0,0,0,1.158-4.2.082.082,0,0,1,.044-.077,7.249,7.249,0,0,0,3.06-3.1.082.082,0,0,1,.075-.047h.013a.081.081,0,0,1,.07.067,6.58,6.58,0,0,1-.116,2.942h0A6.668,6.668,0,0,1,17.134,20.1a.082.082,0,0,1-.093-.027.083.083,0,0,1,0-.1" transform="translate(-0.043 0.122)"/>
    </g>
  </g>
</svg>
