<svg xmlns="http://www.w3.org/2000/svg" width="152.282" height="25.892" viewBox="0 0 152.282 25.892">
  <g id="그룹_634146" data-name="그룹 634146" transform="translate(0 0)">
    <path id="패스_74171" data-name="패스 74171" d="M0,0V25.065H19.624v-3.3H3.254V0Z" transform="translate(0 0)" fill="#fff"/>
    <path id="패스_74172" data-name="패스 74172" d="M57.621,15.3c0,5.586-3.836,7.142-8.792,7.142-5.051,0-8.985-1.411-8.985-7.142V0h-3.3V15.3c0,7.628,5.2,10.444,12.194,10.444,6.943,0,12.142-2.915,12.142-10.444V0H57.621Z" transform="translate(33.897 0.001)" fill="#fff"/>
    <path id="패스_74173" data-name="패스 74173" d="M57.614,0H54.36V25.066H73.983v-3.3H57.614Z" transform="translate(50.429 0.001)" fill="#fff"/>
    <path id="패스_74174" data-name="패스 74174" d="M72.071,21.761V0H68.817V25.065H88.441v-3.3Z" transform="translate(63.841 0)" fill="#fff"/>
    <path id="패스_74175" data-name="패스 74175" d="M32.759,6.638a12.537,12.537,0,0,0-8.59-3.212c-5.4,0-11.128,3.337-11.128,9.525,0,6.411,5.7,9.762,11.323,9.762a12.455,12.455,0,0,0,8.4-3.063v2.388h3.034V4.28H32.759Zm-8.4,13.041c-3.992,0-8.289-2.105-8.289-6.728,0-4.214,4.17-6.49,8.094-6.49,4.156,0,8.366,2.325,8.366,6.764s-4.235,6.454-8.171,6.454" transform="translate(12.098 3.179)" fill="#fff"/>
  </g>
</svg>
