<svg xmlns="http://www.w3.org/2000/svg" width="218.973" height="26.872" viewBox="0 0 218.973 26.872">
  <g id="그룹_634147" data-name="그룹 634147" transform="translate(0 0)">
    <path id="패스_74176" data-name="패스 74176" d="M157,11.321q-3.5-.075-7-.145c-2.234-.048-5.151-.973-5.151-3.7,0-3.6,5.247-4.129,7.824-4.129,4.956,0,7,.534,11.225,3.109L165.4,3.5A23.584,23.584,0,0,0,152.526,0c-4.713,0-10.982,1.748-10.982,7.53,0,4.713,4.52,6.855,8.649,6.949,2.527.048,5,.1,7.531.195,2.674.1,5.783,1.118,5.783,4.276,0,4.033-5.928,4.667-8.844,4.667A22.678,22.678,0,0,1,143,20.651c-.582-.389-1.164-.825-1.748-1.263l-1.6,3.011a19.283,19.283,0,0,0,7.046,3.354,31.659,31.659,0,0,0,8.262,1.116c5.1,0,11.9-1.7,11.9-7.969,0-5.4-5.247-7.481-9.864-7.58" transform="translate(-139.649)" fill="#fff"/>
    <path id="패스_74177" data-name="패스 74177" d="M174.172,0c-7.678,0-15.209,5.006-15.209,13.264,0,8.6,7.289,13.607,15.354,13.607,7.873,0,15.454-4.615,15.454-13.216C189.771,5.1,182.091,0,174.172,0m.243,23.57c-6.172,0-12.2-3.5-12.2-10.255,0-6.462,6.122-9.96,11.954-9.96,6.122,0,12.293,3.549,12.293,10.3,0,6.656-6.074,9.914-12.05,9.914" transform="translate(-121.732)" fill="#fff"/>
    <path id="패스_74178" data-name="패스 74178" d="M194.61,16.341,184.162.453H180.81V25.525h3.256V6.333l10.544,15.89L205.2,6.333V25.525h3.256V.453H205.2Z" transform="translate(-101.466 0.421)" fill="#fff"/>
    <path id="패스_74179" data-name="패스 74179" d="M216.531,16.341,206.083.453h-3.352V25.525h3.256V6.333l10.544,15.89,10.593-15.89V25.525h3.256V.453h-3.256Z" transform="translate(-81.129 0.421)" fill="#fff"/>
    <path id="패스_74180" data-name="패스 74180" d="M241.017.454V3.709h10.109V25.525h3.206V3.709h10.253V.454Z" transform="translate(-45.612 0.421)" fill="#fff"/>
    <path id="패스_74181" data-name="패스 74181" d="M223.826,25.519h22.053V22.167h-18.8V14.343h18.8V11.037h-18.8V3.75h18.8V.444h-22.06Z" transform="translate(-61.561 0.412)" fill="#fff"/>
  </g>
</svg>
