<svg xmlns="http://www.w3.org/2000/svg" xmlns:xlink="http://www.w3.org/1999/xlink" width="149.982" height="142.409" viewBox="0 0 149.982 142.409">
  <defs>
    <clipPath id="clip-path">
      <rect id="사각형_1" data-name="사각형 1" width="149.982" height="142.409" fill="none"/>
    </clipPath>
  </defs>
  <g id="KOSMOS_ULLEUNGDO" data-name="KOSMOS ULLEUNGDO" clip-path="url(#clip-path)">
    <path id="패스_1" data-name="패스 1" d="M12.459,100.416,7.417,91.334a.417.417,0,0,0-.672-.079L2.653,95.708a.414.414,0,0,0-.109.281v4.224a.417.417,0,0,1-.417.417H.416A.416.416,0,0,1,0,100.214V83.038a.416.416,0,0,1,.416-.416H2.127a.416.416,0,0,1,.417.416V90.97a.416.416,0,0,0,.722.281l7.823-8.495a.409.409,0,0,1,.3-.135h2.417a.417.417,0,0,1,.306.7l-4.96,5.329a.414.414,0,0,0-.057.488l6.1,10.871a.417.417,0,0,1-.363.621H12.823a.416.416,0,0,1-.364-.215" transform="translate(0 19.374)" fill="#fff"/>
    <path id="패스_2" data-name="패스 2" d="M49.506,101.132a11.156,11.156,0,0,1-8.491-3.394.418.418,0,0,1,0-.594l1.209-1.191a.42.42,0,0,1,.575-.007,9.373,9.373,0,0,0,7.056,2.531c1.955,0,5.442-.628,5.442-3.234a2.387,2.387,0,0,0-1.178-2.053c-.918-.6-1.79-.652-4.381-.7L47.1,92.442c-2.733-.048-5.229-1.521-5.229-4.611,0-2.631,2.143-4.394,4.381-5.142a10.093,10.093,0,0,1,3.038-.458,11.835,11.835,0,0,1,6.98,2.221.417.417,0,0,1,.1.573l-.984,1.439a.42.42,0,0,1-.567.116,8.852,8.852,0,0,0-5.195-1.67c-1.72,0-5.158.556-5.158,2.9,0,1.762,1.578,2.075,2.968,2.075h2.615a9.216,9.216,0,0,1,5.3,1.086,5.144,5.144,0,0,1,2.473,4.49c0,4.37-4.875,5.674-8.314,5.674" transform="translate(9.589 19.283)" fill="#fff"/>
    <path id="패스_3" data-name="패스 3" d="M77.527,100.214V89.623a.417.417,0,0,0-.78-.2L71.654,98.5a.417.417,0,0,1-.728,0L65.99,89.461a.416.416,0,0,0-.781.2v10.552a.416.416,0,0,1-.416.416H63.128a.416.416,0,0,1-.417-.416V83.038a.416.416,0,0,1,.417-.416h1.855a.417.417,0,0,1,.367.219l5.575,10.338a.416.416,0,0,0,.73.006l5.777-10.35a.416.416,0,0,1,.363-.212h1.883a.416.416,0,0,1,.417.416v17.176a.416.416,0,0,1-.417.416H77.943a.416.416,0,0,1-.416-.416" transform="translate(14.705 19.374)" fill="#fff"/>
    <path id="패스_4" data-name="패스 4" d="M116.394,101.132a11.156,11.156,0,0,1-8.491-3.394.418.418,0,0,1,0-.594l1.209-1.191a.42.42,0,0,1,.575-.007,9.372,9.372,0,0,0,7.056,2.531c1.955,0,5.442-.628,5.442-3.234a2.387,2.387,0,0,0-1.178-2.053c-.918-.6-1.79-.652-4.381-.7l-2.638-.048c-2.733-.048-5.229-1.521-5.229-4.611,0-2.631,2.143-4.394,4.381-5.142a10.093,10.093,0,0,1,3.038-.458,11.835,11.835,0,0,1,6.98,2.221.417.417,0,0,1,.1.573l-.984,1.439a.42.42,0,0,1-.567.116,8.852,8.852,0,0,0-5.195-1.67c-1.72,0-5.158.556-5.158,2.9,0,1.762,1.578,2.075,2.968,2.075h2.615a9.216,9.216,0,0,1,5.3,1.086,5.144,5.144,0,0,1,2.473,4.49c0,4.37-4.875,5.674-8.314,5.674" transform="translate(25.274 19.283)" fill="#fff"/>
    <path id="패스_5" data-name="패스 5" d="M94.909,82.2A9.488,9.488,0,1,0,104.4,91.69,9.487,9.487,0,0,0,94.909,82.2m0,16.415a6.927,6.927,0,1,1,6.928-6.928,6.928,6.928,0,0,1-6.928,6.928" transform="translate(20.031 19.276)" fill="#fff"/>
    <path id="패스_6" data-name="패스 6" d="M28.294,82.2a9.488,9.488,0,1,0,9.487,9.487A9.487,9.487,0,0,0,28.294,82.2m0,16.415a6.927,6.927,0,1,1,6.928-6.928,6.928,6.928,0,0,1-6.928,6.928" transform="translate(4.41 19.276)" fill="#fff"/>
    <path id="패스_7" data-name="패스 7" d="M107.4,43.275a4.669,4.669,0,0,1-.007-2.6,25.549,25.549,0,0,0-2.664-19.7A25.569,25.569,0,0,0,88.982,8.826a4.618,4.618,0,0,1-2.231-1.293A25.467,25.467,0,0,0,68.353,0h0a25.463,25.463,0,0,0-18.4,7.527,4.621,4.621,0,0,1-2.242,1.295,25.484,25.484,0,0,0-15.75,12.186,25.445,25.445,0,0,0-2.658,19.7,4.658,4.658,0,0,1,.007,2.6A26.182,26.182,0,0,0,47.727,75.162a4.608,4.608,0,0,1,2.229,1.291A25.426,25.426,0,0,0,68.347,84h.01a25.446,25.446,0,0,0,18.4-7.534,4.616,4.616,0,0,1,2.241-1.3,25.507,25.507,0,0,0,15.755-12.2,25.448,25.448,0,0,0,2.654-19.7M49.269,11.142A3.022,3.022,0,0,1,51.253,10a24.391,24.391,0,0,1,15.106,3.025.3.3,0,0,1,.147.236.315.315,0,0,1-.121.269,26.053,26.053,0,0,0-8.05,10.723.308.308,0,0,1-.325.186,26.215,26.215,0,0,0-13.309,1.6.311.311,0,0,1-.293-.03.289.289,0,0,1-.132-.246,23.955,23.955,0,0,1,4.992-14.62M80.3,46.418a12.613,12.613,0,0,0,0-8.834l-.015-.052a.1.1,0,0,1,.036-.114.092.092,0,0,1,.109,0,31.062,31.062,0,0,1,5.256,4.018.782.782,0,0,1,0,1.132,31.262,31.262,0,0,1-5.259,4.023.094.094,0,0,1-.11-.006.1.1,0,0,1-.033-.114Zm-11.95,6.356A10.774,10.774,0,1,1,79.128,42,10.786,10.786,0,0,1,68.354,52.775m9.955-18.848a.1.1,0,0,1-.115-.025l-.037-.038a12.626,12.626,0,0,0-7.645-4.417l-.057-.016a.1.1,0,0,1-.08-.086.092.092,0,0,1,.049-.1A31.126,31.126,0,0,1,76.534,26.7a.815.815,0,0,1,.223-.032.77.77,0,0,1,.389.1.762.762,0,0,1,.368.494,31.2,31.2,0,0,1,.854,6.565.092.092,0,0,1-.059.091M66.261,29.432l-.049.014a12.61,12.61,0,0,0-7.649,4.413l-.041.041a.1.1,0,0,1-.116.026.093.093,0,0,1-.059-.091,31.122,31.122,0,0,1,.852-6.563.786.786,0,0,1,.758-.6.816.816,0,0,1,.223.033,31.366,31.366,0,0,1,6.113,2.543.1.1,0,0,1,.049.1.1.1,0,0,1-.081.086M59.2,56.731a31.15,31.15,0,0,1-.854-6.566.093.093,0,0,1,.059-.091.124.124,0,0,1,.038-.007.106.106,0,0,1,.077.035l.037.036a12.626,12.626,0,0,0,7.648,4.419l.054.014a.1.1,0,0,1,.08.088.092.092,0,0,1-.049.1,31.146,31.146,0,0,1-6.11,2.543.772.772,0,0,1-.611-.072.763.763,0,0,1-.369-.494M70.453,54.57l.052-.014a12.634,12.634,0,0,0,7.651-4.415l.038-.041a.111.111,0,0,1,.077-.033.1.1,0,0,1,.04.009.092.092,0,0,1,.059.091,31.131,31.131,0,0,1-.852,6.561.781.781,0,0,1-.98.567,31.027,31.027,0,0,1-6.113-2.543.092.092,0,0,1-.051-.1.1.1,0,0,1,.079-.086m-14.029-8.1a.106.106,0,0,1-.035.114.1.1,0,0,1-.11,0,31.161,31.161,0,0,1-5.256-4.02.782.782,0,0,1,0-1.132,31.385,31.385,0,0,1,5.259-4.023.1.1,0,0,1,.051-.015.1.1,0,0,1,.058.021.1.1,0,0,1,.036.112l-.014.051a12.616,12.616,0,0,0,0,8.835Zm30.933-6.177a.51.51,0,0,1-.4-.156,26.071,26.071,0,0,0-5.649-4.395l-.011-.006a2.109,2.109,0,0,1-1.047-1.83,25.617,25.617,0,0,0-1-7.116.526.526,0,0,1,.067-.433.48.48,0,0,1,.349-.214,23.368,23.368,0,0,1,2.663-.152,24.261,24.261,0,0,1,8.614,1.59,1.883,1.883,0,0,1,1.184,2.046,23.9,23.9,0,0,1-4.4,10.459.507.507,0,0,1-.374.206M76.406,24.252a.512.512,0,0,1-.009.43.518.518,0,0,1-.336.27,26,26,0,0,0-6.685,2.721,2.072,2.072,0,0,1-2.074,0,25.736,25.736,0,0,0-6.653-2.707.509.509,0,0,1-.343-.7,24.3,24.3,0,0,1,6.885-9.039,1.882,1.882,0,0,1,2.367,0,24.159,24.159,0,0,1,6.848,9.027M45.767,27.58A24.372,24.372,0,0,1,54.387,26a23.013,23.013,0,0,1,2.636.149.511.511,0,0,1,.367.223.505.505,0,0,1,.065.425,25.842,25.842,0,0,0-.991,7.1v.032A2.11,2.11,0,0,1,55.4,35.756a25.746,25.746,0,0,0-5.643,4.391.5.5,0,0,1-.4.154.506.506,0,0,1-.377-.2,23.955,23.955,0,0,1-4.4-10.514,1.853,1.853,0,0,1,1.181-2m3.584,16.1a.48.48,0,0,1,.386.148,26.43,26.43,0,0,0,5.679,4.423,2.083,2.083,0,0,1,1.043,1.8,25.625,25.625,0,0,0,1,7.144.517.517,0,0,1-.065.432.477.477,0,0,1-.349.215,24.444,24.444,0,0,1-11.276-1.434,1.887,1.887,0,0,1-1.183-2.053A23.893,23.893,0,0,1,47.5,46.136a24.162,24.162,0,0,1,1.472-2.248.515.515,0,0,1,.381-.21M60.3,59.735a.509.509,0,0,1,.343-.7,26,26,0,0,0,6.645-2.7l.028-.016a2.109,2.109,0,0,1,2.109.009,25.764,25.764,0,0,0,6.629,2.694.509.509,0,0,1,.343.7,24.3,24.3,0,0,1-6.885,9.039,1.882,1.882,0,0,1-2.367,0A24.146,24.146,0,0,1,60.3,59.735M90.957,56.4a24.244,24.244,0,0,1-11.272,1.434.509.509,0,0,1-.432-.648,25.864,25.864,0,0,0,.991-7.114,2.112,2.112,0,0,1,1.062-1.822,25.567,25.567,0,0,0,5.663-4.419.5.5,0,0,1,.4-.157.507.507,0,0,1,.375.206,24.436,24.436,0,0,1,4.386,10.473A1.88,1.88,0,0,1,90.957,56.4M92.3,26a.318.318,0,0,1-.294.031,26.232,26.232,0,0,0-9.7-1.862,24.7,24.7,0,0,0-3.6.259.3.3,0,0,1-.323-.186,26.121,26.121,0,0,0-8.032-10.724.312.312,0,0,1-.12-.268.289.289,0,0,1,.144-.236,24.427,24.427,0,0,1,15.1-3,3.029,3.029,0,0,1,1.98,1.143,24.082,24.082,0,0,1,4.975,14.6A.29.29,0,0,1,92.3,26M84.073,7.838a.291.291,0,0,1-.3.191,26.09,26.09,0,0,0-15.237,3.986.3.3,0,0,1-.322,0A26.293,26.293,0,0,0,54.285,7.985c-.439,0-.876.012-1.313.036a.319.319,0,0,1-.3-.194.3.3,0,0,1,.084-.342A24.194,24.194,0,0,1,56.7,4.743,24.2,24.2,0,0,1,83.993,7.5a.292.292,0,0,1,.08.339M42.535,54.754a.292.292,0,0,1-.278-.009A24.324,24.324,0,0,1,32.1,43.154a3.028,3.028,0,0,1,0-2.311A24.328,24.328,0,0,1,42.262,29.258a.3.3,0,0,1,.149-.041.29.29,0,0,1,.13.031.31.31,0,0,1,.174.238,25.623,25.623,0,0,0,2.927,8.77A26.053,26.053,0,0,0,47.98,41.8a.3.3,0,0,1,0,.373,26.191,26.191,0,0,0-5.271,12.341.313.313,0,0,1-.173.239m4.127-43.106A26.125,26.125,0,0,0,42.47,26.875a.3.3,0,0,1-.16.279A26.245,26.245,0,0,0,31.228,38.4a.3.3,0,0,1-.318.165.294.294,0,0,1-.254-.243,23.86,23.86,0,0,1,.421-10.656A24.15,24.15,0,0,1,46.309,11.19a.33.33,0,0,1,.1-.019.3.3,0,0,1,.232.117.3.3,0,0,1,.016.359m-16,34.055a.294.294,0,0,1,.253-.243.3.3,0,0,1,.319.165A25.9,25.9,0,0,0,42.318,56.854a.3.3,0,0,1,.162.28,26.269,26.269,0,0,0,4.19,15.2.3.3,0,0,1-.016.359.3.3,0,0,1-.336.1A24.052,24.052,0,0,1,30.662,45.7M44.41,57.981a.3.3,0,0,1,.174-.053.319.319,0,0,1,.117.022,25.851,25.851,0,0,0,13.3,1.609.306.306,0,0,1,.323.186,26.138,26.138,0,0,0,8.029,10.719.317.317,0,0,1,.121.268.293.293,0,0,1-.146.236,24.428,24.428,0,0,1-15.11,3,3.026,3.026,0,0,1-1.99-1.158,24.323,24.323,0,0,1-4.954-14.584.29.29,0,0,1,.131-.247M52.629,76.15a.3.3,0,0,1,.284-.194h.02a26.079,26.079,0,0,0,15.241-3.985.3.3,0,0,1,.322,0,26.339,26.339,0,0,0,15.279,4,.31.31,0,0,1,.3.194.3.3,0,0,1-.084.342,24.118,24.118,0,0,1-31.282-.014.3.3,0,0,1-.083-.341M70.2,70.727a.31.31,0,0,1,.12-.268,26.057,26.057,0,0,0,8.05-10.724.3.3,0,0,1,.28-.19.269.269,0,0,1,.044,0,26.169,26.169,0,0,0,13.324-1.6.308.308,0,0,1,.293.028.292.292,0,0,1,.132.246,24.31,24.31,0,0,1-4.98,14.618,3.019,3.019,0,0,1-1.986,1.148,24.392,24.392,0,0,1-15.13-3.02.293.293,0,0,1-.147-.237m23.968-41.5a.3.3,0,0,1,.278.009,24.319,24.319,0,0,1,10.159,11.592,3.019,3.019,0,0,1,0,2.31A24.318,24.318,0,0,1,94.452,54.725a.291.291,0,0,1-.279.01A.313.313,0,0,1,94,54.5a26.1,26.1,0,0,0-5.263-12.321.3.3,0,0,1,0-.372A26,26,0,0,0,94,29.469a.309.309,0,0,1,.172-.237m11.876,9.053a.294.294,0,0,1-.253.243.3.3,0,0,1-.318-.165A25.908,25.908,0,0,0,94.4,27.138a.3.3,0,0,1-.162-.279,25.806,25.806,0,0,0-4.194-15.2.3.3,0,0,1,.016-.36.3.3,0,0,1,.232-.116.318.318,0,0,1,.1.019,24.051,24.051,0,0,1,15.65,27.085m-16,34.053A25.9,25.9,0,0,0,94.242,57.11a.3.3,0,0,1,.16-.279,26.254,26.254,0,0,0,11.077-11.246.3.3,0,0,1,.273-.169.274.274,0,0,1,.046,0,.294.294,0,0,1,.254.243,23.84,23.84,0,0,1-.421,10.656A24.146,24.146,0,0,1,90.4,72.795a.3.3,0,0,1-.337-.1.3.3,0,0,1-.016-.359" transform="translate(6.655 0)" fill="#fff"/>
    <path id="패스_8" data-name="패스 8" d="M21.493,115.649a3.992,3.992,0,0,1-3.142,1.216c-2.084,0-3.532-.994-3.532-3.263V108.93H16.31V113.6c0,1.572.984,1.706,2.258,1.706a3.055,3.055,0,0,0,1.448-.342c.42-.237.564-.533.564-1.364V108.93h1.476V113.6a2.942,2.942,0,0,1-.564,2.047" transform="translate(3.475 25.543)" fill="#fff"/>
    <path id="패스_9" data-name="패스 9" d="M26.5,116.613V108.93h1.549v6.111h4.271v1.573Z" transform="translate(6.213 25.543)" fill="#fff"/>
    <path id="패스_10" data-name="패스 10" d="M35.573,116.613V108.93h1.549v6.111h4.271v1.573Z" transform="translate(8.342 25.543)" fill="#fff"/>
    <path id="패스_11" data-name="패스 11" d="M44.73,116.613V108.93h6.63v1.542H46.206v1.41h5.168v1.528H46.206v1.66h5.328v1.543Z" transform="translate(10.489 25.543)" fill="#fff"/>
    <path id="패스_12" data-name="패스 12" d="M61.7,115.649a3.992,3.992,0,0,1-3.142,1.216c-2.084,0-3.532-.994-3.532-3.263V108.93h1.491V113.6c0,1.572.984,1.706,2.258,1.706a3.055,3.055,0,0,0,1.448-.342c.42-.237.564-.533.564-1.364V108.93h1.476V113.6a2.942,2.942,0,0,1-.564,2.047" transform="translate(12.903 25.543)" fill="#fff"/>
    <path id="패스_13" data-name="패스 13" d="M72.421,116.613l-4.169-5.207v5.207H66.761V108.93h1.491l4.169,5.191V108.93h1.491v7.683Z" transform="translate(15.655 25.543)" fill="#fff"/>
    <path id="패스_14" data-name="패스 14" d="M82,116.913c-2.373,0-4.547-1.469-4.547-4.094,0-2.6,2.158-4.095,4.518-4.095a6.6,6.6,0,0,1,3.532.979l-.883,1.543a4.549,4.549,0,0,0-2.722-.964,2.652,2.652,0,0,0-2.923,2.522,2.592,2.592,0,0,0,2.85,2.536,3.936,3.936,0,0,0,2.288-.7v-.92H82.275v-1.439h3.373v3.234A5.152,5.152,0,0,1,82,116.913" transform="translate(18.162 25.495)" fill="#fff"/>
    <path id="패스_15" data-name="패스 15" d="M93.306,116.614H89.238v-7.685h4.068a3.485,3.485,0,0,1,3.794,3.782,3.606,3.606,0,0,1-3.794,3.9m0-6.142H90.8v4.6h2.5a2.105,2.105,0,0,0,2.273-2.329,2.047,2.047,0,0,0-2.273-2.269" transform="translate(20.926 25.543)" fill="#fff"/>
    <path id="패스_16" data-name="패스 16" d="M104.439,116.913c-2.36,0-4.59-1.528-4.59-4.123s2.273-4.065,4.6-4.065c2.36,0,4.618,1.365,4.618,4.021,0,2.61-2.258,4.168-4.632,4.168m.028-6.616c-1.5,0-3.1.772-3.1,2.522s1.622,2.521,3.113,2.521a2.819,2.819,0,0,0,3.069-2.58c0-1.721-1.621-2.463-3.084-2.463" transform="translate(23.414 25.495)" fill="#fff"/>
  </g>
</svg>
