<svg xmlns="http://www.w3.org/2000/svg" xmlns:xlink="http://www.w3.org/1999/xlink" width="161.837" height="40.222" viewBox="0 0 161.837 40.222">
  <defs>
    <clipPath id="clip-path">
      <rect id="사각형_4" data-name="사각형 4" width="161.837" height="40.222" fill="#fff"/>
    </clipPath>
  </defs>
  <g id="그룹_5" data-name="그룹 5" clip-path="url(#clip-path)">
    <path id="패스_17" data-name="패스 17" d="M13.444,34.341,8,24.424a.446.446,0,0,0-.723-.088L2.864,29.2a.457.457,0,0,0-.12.308V34.12a.452.452,0,0,1-.449.455H.45A.452.452,0,0,1,0,34.12V15.364a.453.453,0,0,1,.45-.455H2.3a.453.453,0,0,1,.449.455v8.661a.45.45,0,0,0,.781.308l8.44-9.278a.449.449,0,0,1,.33-.147H14.9a.456.456,0,0,1,.329.765l-5.35,5.82a.458.458,0,0,0-.064.532L16.4,33.9a.455.455,0,0,1-.393.678H13.836a.451.451,0,0,1-.393-.234" transform="translate(0 5.172)" fill="#fff"/>
    <path id="패스_18" data-name="패스 18" d="M29.057,35.2A10.278,10.278,0,0,1,18.865,24.6a10.206,10.206,0,1,1,20.41.315A10.269,10.269,0,0,1,29.057,35.2m0-17.82a7.311,7.311,0,0,0-7.473,7.566,7.473,7.473,0,0,0,14.945-.185,7.324,7.324,0,0,0-7.472-7.381" transform="translate(6.243 5.023)" fill="#fff"/>
    <path id="패스_19" data-name="패스 19" d="M50.222,35.159a11.963,11.963,0,0,1-9.162-3.707.46.46,0,0,1,0-.648l1.3-1.3a.448.448,0,0,1,.62-.008A10.05,10.05,0,0,0,50.6,32.259c2.11,0,5.872-.686,5.872-3.532A2.609,2.609,0,0,0,55.2,26.486c-.992-.66-1.931-.711-4.728-.765l-2.847-.053c-2.948-.053-5.642-1.661-5.642-5.035,0-2.873,2.312-4.8,4.728-5.615a10.78,10.78,0,0,1,3.278-.5,12.674,12.674,0,0,1,7.53,2.424.46.46,0,0,1,.1.626L56.565,19.14a.448.448,0,0,1-.611.128,9.473,9.473,0,0,0-5.606-1.824c-1.855,0-5.566.606-5.566,3.163,0,1.925,1.7,2.268,3.2,2.268h2.82c2.11,0,3.838.026,5.719,1.185a5.632,5.632,0,0,1,2.669,4.9c0,4.772-5.261,6.2-8.972,6.2" transform="translate(13.545 5.037)" fill="#fff"/>
    <path id="패스_20" data-name="패스 20" d="M78.752,34.12V22.556a.448.448,0,0,0-.841-.222l-5.5,9.917a.447.447,0,0,1-.787-.005L66.3,22.379a.449.449,0,0,0-.844.217V34.12a.453.453,0,0,1-.449.455h-1.8a.453.453,0,0,1-.45-.455V15.364a.453.453,0,0,1,.45-.455h2a.45.45,0,0,1,.4.24l6.016,11.29a.447.447,0,0,0,.788.005l6.234-11.3a.449.449,0,0,1,.391-.233h2.032a.453.453,0,0,1,.449.455V34.12a.453.453,0,0,1-.449.455H79.2a.453.453,0,0,1-.45-.455" transform="translate(20.772 5.172)" fill="#fff"/>
    <path id="패스_21" data-name="패스 21" d="M95.718,35.2A10.278,10.278,0,0,1,85.526,24.6a10.206,10.206,0,1,1,20.41.315A10.269,10.269,0,0,1,95.718,35.2m0-17.82a7.311,7.311,0,0,0-7.473,7.566,7.473,7.473,0,0,0,14.945-.185,7.324,7.324,0,0,0-7.472-7.381" transform="translate(28.304 5.023)" fill="#fff"/>
    <path id="패스_22" data-name="패스 22" d="M117.166,35.159A11.963,11.963,0,0,1,108,31.453a.46.46,0,0,1,0-.648l1.3-1.3a.448.448,0,0,1,.62-.008,10.05,10.05,0,0,0,7.614,2.763c2.11,0,5.872-.686,5.872-3.532a2.609,2.609,0,0,0-1.271-2.241c-.992-.66-1.931-.711-4.728-.765l-2.847-.053c-2.948-.053-5.642-1.661-5.642-5.035,0-2.873,2.312-4.8,4.728-5.615a10.78,10.78,0,0,1,3.278-.5,12.674,12.674,0,0,1,7.53,2.424.46.46,0,0,1,.1.626l-1.062,1.571a.448.448,0,0,1-.611.128,9.473,9.473,0,0,0-5.606-1.824c-1.855,0-5.566.606-5.566,3.163,0,1.925,1.7,2.268,3.2,2.268h2.82c2.11,0,3.838.026,5.719,1.185a5.632,5.632,0,0,1,2.669,4.9c0,4.772-5.261,6.2-8.972,6.2" transform="translate(35.7 5.037)" fill="#fff"/>
    <path id="패스_23" data-name="패스 23" d="M47.985,8.514H46.721a.117.117,0,0,1-.108-.073L43.1.167A.12.12,0,0,1,43.212,0h1.042a.118.118,0,0,1,.109.073l2.887,6.8a.118.118,0,0,0,.217,0l2.908-6.8A.117.117,0,0,1,50.483,0h1.063a.119.119,0,0,1,.108.167L48.093,8.443a.118.118,0,0,1-.108.071" transform="translate(14.262 0)" fill="#fff"/>
    <path id="패스_24" data-name="패스 24" d="M52.606,8.394V.12A.119.119,0,0,1,52.724,0h.941a.119.119,0,0,1,.118.12V8.394a.119.119,0,0,1-.118.12h-.941a.119.119,0,0,1-.118-.12" transform="translate(17.41 0)" fill="#fff"/>
    <path id="패스_25" data-name="패스 25" d="M57.583,8.394V.12A.119.119,0,0,1,57.7,0h.962a.119.119,0,0,1,.118.12V7.15a.119.119,0,0,0,.118.12H63.66a.119.119,0,0,1,.118.12v1a.119.119,0,0,1-.118.12H57.7a.119.119,0,0,1-.118-.12" transform="translate(19.057 0)" fill="#fff"/>
    <path id="패스_26" data-name="패스 26" d="M65.362,8.394V.12A.119.119,0,0,1,65.48,0h.962a.119.119,0,0,1,.118.12V7.15a.119.119,0,0,0,.118.12h4.759a.119.119,0,0,1,.118.12v1a.119.119,0,0,1-.118.12H65.48a.119.119,0,0,1-.118-.12" transform="translate(21.631 0)" fill="#fff"/>
    <path id="패스_27" data-name="패스 27" d="M79.329,8.438,78.214,5.811a.118.118,0,0,0-.109-.073H74.574a.119.119,0,0,0-.108.07L73.307,8.44a.118.118,0,0,1-.108.071H72.158a.12.12,0,0,1-.108-.168L75.676.079a.118.118,0,0,1,.108-.071h1.167a.117.117,0,0,1,.108.073l3.572,8.263a.12.12,0,0,1-.109.167H79.439a.118.118,0,0,1-.109-.073M76.238,1.762,75.121,4.314a.12.12,0,0,0,.108.168h2.233a.119.119,0,0,0,.108-.168L76.453,1.762a.118.118,0,0,0-.216,0" transform="translate(23.841 0.003)" fill="#fff"/>
  </g>
</svg>
