<svg xmlns="http://www.w3.org/2000/svg" xmlns:xlink="http://www.w3.org/1999/xlink" width="268" height="65" viewBox="0 0 268 65">
  <defs>
    <clipPath id="clip-path">
      <rect id="사각형_6" data-name="사각형 6" width="268" height="65" transform="translate(-0.184)" fill="#fff"/>
    </clipPath>
  </defs>
  <g id="그룹_9" data-name="그룹 9" transform="translate(0.184)" clip-path="url(#clip-path)">
    <path id="패스_38" data-name="패스 38" d="M51.266,13.8H49.191a.192.192,0,0,1-.177-.118L43.26.271A.194.194,0,0,1,43.436,0h1.709a.193.193,0,0,1,.179.118L50.06,11.133a.194.194,0,0,0,.356,0L55.187.118A.192.192,0,0,1,55.364,0h1.744a.193.193,0,0,1,.177.271L51.442,13.685a.194.194,0,0,1-.177.116" transform="translate(51.169 0.001)" fill="#fff"/>
    <path id="패스_39" data-name="패스 39" d="M52.755,13.606V.194A.2.2,0,0,1,52.949,0h1.544a.2.2,0,0,1,.194.194V13.606a.2.2,0,0,1-.194.194H52.949a.2.2,0,0,1-.194-.194" transform="translate(62.424 0.001)" fill="#fff"/>
    <path id="패스_40" data-name="패스 40" d="M57.732,13.606V.194A.2.2,0,0,1,57.926,0H59.5A.2.2,0,0,1,59.7.194V11.589a.2.2,0,0,0,.194.194H67.7a.2.2,0,0,1,.194.194v1.629a.2.2,0,0,1-.194.194H57.926a.2.2,0,0,1-.194-.194" transform="translate(68.313 0.001)" fill="#fff"/>
    <path id="패스_41" data-name="패스 41" d="M65.512,13.606V.194A.2.2,0,0,1,65.706,0h1.578a.2.2,0,0,1,.194.194V11.589a.2.2,0,0,0,.194.194h7.807a.2.2,0,0,1,.194.194v1.629a.2.2,0,0,1-.194.194H65.706a.2.2,0,0,1-.194-.194" transform="translate(77.519 0.001)" fill="#fff"/>
    <path id="패스_42" data-name="패스 42" d="M84.146,13.673l-1.83-4.26a.191.191,0,0,0-.179-.118H76.345a.2.2,0,0,0-.177.114l-1.9,4.266a.193.193,0,0,1-.175.116h-1.71a.2.2,0,0,1-.177-.273L78.155.124A.191.191,0,0,1,78.33.008h1.917a.192.192,0,0,1,.175.118L86.283,13.52a.2.2,0,0,1-.179.271H84.325a.2.2,0,0,1-.179-.118M79.074,2.851l-1.83,4.137a.193.193,0,0,0,.175.273h3.664a.193.193,0,0,0,.177-.273L79.43,2.851a.2.2,0,0,0-.356,0" transform="translate(85.42 0.01)" fill="#fff"/>
    <path id="패스_43" data-name="패스 43" d="M15.324,47.865c-6.174,0-10.84-1.79-15.2-6.207a.432.432,0,0,1,.007-.611l2.557-2.517a.431.431,0,0,1,.6-.007c3.871,3.565,7.4,4.657,12.663,4.657,3.45,0,9.6-1.107,9.6-5.707a4.207,4.207,0,0,0-2.078-3.62c-1.622-1.065-3.159-1.151-7.731-1.236l-4.655-.085C6.263,32.446,1.86,29.848,1.86,24.4c0-4.644,3.781-7.753,7.729-9.072a17.781,17.781,0,0,1,5.362-.81A20.886,20.886,0,0,1,27.5,18.609a.435.435,0,0,1,.1.592l-2.068,3.022a.431.431,0,0,1-.587.12c-3.183-1.989-5.526-3.1-9.414-3.1-3.033,0-9.1.98-9.1,5.111,0,3.109,2.786,3.664,5.238,3.664H16.28c3.45,0,6.275.044,9.351,1.917a9.072,9.072,0,0,1,4.362,7.923c0,7.709-8.6,10.008-14.669,10.008" transform="translate(0 17.176)" fill="#fff"/>
    <path id="패스_44" data-name="패스 44" d="M37.237,47.954c-9.392,0-16.665-7.539-16.665-17.123A16.689,16.689,0,1,1,37.237,47.954m0-28.793A11.882,11.882,0,0,0,25.019,31.385a12.22,12.22,0,0,0,24.435-.3A11.908,11.908,0,0,0,37.237,19.161" transform="translate(24.342 17.13)" fill="#fff"/>
    <path id="패스_45" data-name="패스 45" d="M70.544,46.248V26.1a.431.431,0,0,0-.808-.21L59.914,43.4a.433.433,0,0,1-.758,0L49.62,25.931a.432.432,0,0,0-.81.207v20.11a.433.433,0,0,1-.432.432H44.836a.432.432,0,0,1-.432-.432V15.337a.432.432,0,0,1,.432-.432h3.757a.435.435,0,0,1,.38.227L59.159,34.02a.431.431,0,0,0,.755,0l10.547-18.9a.432.432,0,0,1,.378-.223h3.8a.433.433,0,0,1,.432.432V46.248a.433.433,0,0,1-.432.432H70.977a.433.433,0,0,1-.432-.432" transform="translate(52.542 17.638)" fill="#fff"/>
    <path id="패스_46" data-name="패스 46" d="M94.09,46.248V26.1a.431.431,0,0,0-.808-.21L83.46,43.4a.433.433,0,0,1-.758,0L73.166,25.931a.432.432,0,0,0-.81.207v20.11a.433.433,0,0,1-.432.432H68.382a.432.432,0,0,1-.432-.432V15.337a.432.432,0,0,1,.432-.432H72.14a.435.435,0,0,1,.38.227L82.7,34.02a.431.431,0,0,0,.755,0l10.547-18.9a.432.432,0,0,1,.378-.223h3.8a.433.433,0,0,1,.432.432V46.248a.433.433,0,0,1-.432.432H94.523a.433.433,0,0,1-.432-.432" transform="translate(80.403 17.638)" fill="#fff"/>
    <path id="패스_47" data-name="패스 47" d="M91.516,46.248V15.337a.433.433,0,0,1,.432-.432H116.6a.433.433,0,0,1,.432.432v3.821a.432.432,0,0,1-.432.432H96.479a.432.432,0,0,0-.432.432v7.443a.43.43,0,0,0,.432.43h20.206a.431.431,0,0,1,.43.432v3.738a.43.43,0,0,1-.43.43H96.479a.432.432,0,0,0-.432.432v8.679a.43.43,0,0,0,.432.43H117.39a.432.432,0,0,1,.432.432v3.779a.432.432,0,0,1-.432.432H91.948a.433.433,0,0,1-.432-.432" transform="translate(108.289 17.638)" fill="#fff"/>
    <path id="패스_48" data-name="패스 48" d="M125.269,19.979V46.246a.432.432,0,0,1-.432.432H121.3a.432.432,0,0,1-.432-.432V19.979a.432.432,0,0,0-.432-.432H110.241a.429.429,0,0,1-.432-.432V15.337a.429.429,0,0,1,.432-.432h25.525a.431.431,0,0,1,.432.432v3.777a.431.431,0,0,1-.432.432H125.7a.433.433,0,0,0-.432.432" transform="translate(129.934 17.638)" fill="#fff"/>
  </g>
</svg>
