<svg xmlns="http://www.w3.org/2000/svg" xmlns:xlink="http://www.w3.org/1999/xlink" width="129.227" height="40.66" viewBox="0 0 129.227 40.66">
  <defs>
    <clipPath id="clip-path">
      <rect id="사각형_5" data-name="사각형 5" width="129.227" height="40.66" fill="#fff"/>
    </clipPath>
  </defs>
  <g id="그룹_7" data-name="그룹 7" clip-path="url(#clip-path)">
    <path id="패스_28" data-name="패스 28" d="M34.1,8.741H32.788a.122.122,0,0,1-.112-.075L29.031.171A.123.123,0,0,1,29.143,0h1.083a.122.122,0,0,1,.113.075l3,6.977a.123.123,0,0,0,.225,0L36.585.075A.122.122,0,0,1,36.7,0h1.1a.122.122,0,0,1,.112.171l-3.7,8.5a.123.123,0,0,1-.112.073" transform="translate(11.111 0)" fill="#fff"/>
    <path id="패스_29" data-name="패스 29" d="M38.532,8.618V.123A.123.123,0,0,1,38.655,0h.978a.123.123,0,0,1,.123.123V8.618a.123.123,0,0,1-.123.123h-.978a.123.123,0,0,1-.123-.123" transform="translate(14.752 0)" fill="#fff"/>
    <path id="패스_30" data-name="패스 30" d="M43.509,8.618V.123A.123.123,0,0,1,43.632,0h1a.123.123,0,0,1,.123.123V7.34a.123.123,0,0,0,.123.123h4.945a.123.123,0,0,1,.123.123V8.618a.123.123,0,0,1-.123.123H43.632a.123.123,0,0,1-.123-.123" transform="translate(16.658 0)" fill="#fff"/>
    <path id="패스_31" data-name="패스 31" d="M51.289,8.618V.123A.123.123,0,0,1,51.412,0h1a.123.123,0,0,1,.123.123V7.34a.123.123,0,0,0,.123.123H57.6a.123.123,0,0,1,.123.123V8.618a.123.123,0,0,1-.123.123H51.412a.123.123,0,0,1-.123-.123" transform="translate(19.637 0)" fill="#fff"/>
    <path id="패스_32" data-name="패스 32" d="M65.54,8.663l-1.159-2.7a.122.122,0,0,0-.113-.075H60.6a.124.124,0,0,0-.112.072l-1.2,2.7a.123.123,0,0,1-.112.073H58.089a.123.123,0,0,1-.112-.173L61.744.081a.123.123,0,0,1,.112-.073h1.213a.122.122,0,0,1,.112.075l3.712,8.484a.123.123,0,0,1-.113.171H65.653a.122.122,0,0,1-.113-.075M62.327,1.808l-1.16,2.621a.123.123,0,0,0,.112.173H63.6a.122.122,0,0,0,.112-.173l-1.16-2.621a.123.123,0,0,0-.224,0" transform="translate(22.193 0.003)" fill="#fff"/>
    <path id="패스_33" data-name="패스 33" d="M9.785,18.081V34.687a.283.283,0,0,1-.282.283H7.279A.283.283,0,0,1,7,34.687V18.081a.282.282,0,0,0-.282-.282H.282A.282.282,0,0,1,0,17.516V15.142a.282.282,0,0,1,.282-.282H16.42a.282.282,0,0,1,.282.282v2.374a.282.282,0,0,1-.282.282H10.067a.282.282,0,0,0-.282.282" transform="translate(0 5.689)" fill="#fff"/>
    <path id="패스_34" data-name="패스 34" d="M19.972,34.688V15.143a.282.282,0,0,1,.282-.282H35.84a.282.282,0,0,1,.282.282v2.4a.282.282,0,0,1-.282.282H23.121a.282.282,0,0,0-.282.282V22.8a.282.282,0,0,0,.282.282h12.7a.282.282,0,0,1,.282.282v2.348a.282.282,0,0,1-.282.282h-12.7a.282.282,0,0,0-.282.282V31.75a.282.282,0,0,0,.282.282H36.34a.282.282,0,0,1,.282.282v2.374a.282.282,0,0,1-.282.282H20.254a.282.282,0,0,1-.282-.282" transform="translate(7.647 5.69)" fill="#fff"/>
    <path id="패스_35" data-name="패스 35" d="M53.336,26.839l3.734,7.726a.282.282,0,0,1-.254.405H54.209a.279.279,0,0,1-.254-.162L50.161,26.8a.281.281,0,0,0-.254-.16H43.055a.282.282,0,0,0-.282.282v7.765a.282.282,0,0,1-.282.282h-2.3a.282.282,0,0,1-.282-.282V15.143a.282.282,0,0,1,.282-.282H51.532c3.577,0,6.181,2.1,6.181,5.93a5.491,5.491,0,0,1-4.205,5.657.28.28,0,0,0-.171.391m-1.8-9.067H43.055a.282.282,0,0,0-.282.282v5.367a.282.282,0,0,0,.282.282h8.477c1.947,0,3.341-.944,3.341-3.074,0-2.1-1.474-2.857-3.341-2.857" transform="translate(15.278 5.69)" fill="#fff"/>
    <path id="패스_36" data-name="패스 36" d="M74.049,26.839l3.734,7.726a.282.282,0,0,1-.254.405H74.922a.28.28,0,0,1-.254-.162L70.874,26.8a.281.281,0,0,0-.254-.16H63.768a.282.282,0,0,0-.282.282v7.765a.282.282,0,0,1-.282.282H60.9a.282.282,0,0,1-.282-.282V15.143a.282.282,0,0,1,.282-.282H72.245c3.577,0,6.181,2.1,6.181,5.93a5.491,5.491,0,0,1-4.205,5.657.28.28,0,0,0-.171.391m-1.8-9.067H63.768a.282.282,0,0,0-.282.282v5.367a.282.282,0,0,0,.282.282h8.477c1.947,0,3.341-.944,3.341-3.074,0-2.1-1.474-2.857-3.341-2.857" transform="translate(23.209 5.69)" fill="#fff"/>
    <path id="패스_37" data-name="패스 37" d="M81.409,34.688V15.143a.282.282,0,0,1,.282-.282H97.277a.282.282,0,0,1,.282.282v2.4a.282.282,0,0,1-.282.282H84.558a.282.282,0,0,0-.282.282V22.8a.282.282,0,0,0,.282.282h12.7a.282.282,0,0,1,.282.282v2.348a.282.282,0,0,1-.282.282h-12.7a.282.282,0,0,0-.282.282V31.75a.282.282,0,0,0,.282.282H97.777a.282.282,0,0,1,.282.282v2.374a.282.282,0,0,1-.282.282H81.691a.282.282,0,0,1-.282-.282" transform="translate(31.168 5.69)" fill="#fff"/>
  </g>
</svg>
