<svg xmlns="http://www.w3.org/2000/svg" width="100" height="100" viewBox="0 0 100 100">
  <g id="btn_Play" transform="translate(-1566.203 -2014.601)">
    <rect id="bg" width="100" height="100" rx="50" transform="translate(1566.203 2014.601)" fill="rgba(255,255,255,0.9)"/>
    <g id="다각형_19" data-name="다각형 19" transform="translate(1629.203 2052.601) rotate(90)">
      <path d="M 20.63092041015625 21.00000190734863 L 3.369080066680908 21.00000190734863 C 2.855269908905029 21.00000190734863 2.596560001373291 20.65765190124512 2.509190082550049 20.51046180725098 C 2.421809911727905 20.36327171325684 2.245140075683594 19.97222137451172 2.491189956665039 19.52114105224609 L 11.12211036682129 3.697801828384399 C 11.37866973876953 3.227431774139404 11.82151031494141 3.1766517162323 12 3.1766517162323 C 12.17848968505859 3.1766517162323 12.62133026123047 3.227431774139404 12.87788963317871 3.697801828384399 L 21.50881004333496 19.52114105224609 C 21.75485992431641 19.97222137451172 21.57818984985352 20.36327171325684 21.49081039428711 20.51046180725098 C 21.40344047546387 20.65765190124512 21.14472961425781 21.00000190734863 20.63092041015625 21.00000190734863 Z" stroke="none"/>
      <path d="M 12 4.176651000976562 L 3.36907958984375 19.99999237060547 C 3.36907958984375 19.9999942779541 3.36907958984375 19.99999809265137 3.36907958984375 20.00000190734863 L 20.63090896606445 20.00000190734863 C 20.63091468811035 20.00000190734863 20.63092041015625 20 20.63092231750488 19.99999618530273 C 20.63092231750488 19.9999942779541 20.63092041015625 19.99999237060547 20.63092041015625 19.99999237060547 L 12 4.176651000976562 M 12 2.176654815673828 C 12.68838787078857 2.176654815673828 13.37677478790283 2.524085998535156 13.7557897567749 3.218952178955078 L 22.38670921325684 19.04229164123535 C 23.11366081237793 20.37504196166992 22.1490306854248 22.00000190734863 20.63090896606445 22.00000190734863 L 3.36907958984375 22.00000190734863 C 1.850969314575195 22.00000190734863 0.8863391876220703 20.37504196166992 1.613290786743164 19.04229164123535 L 10.2442102432251 3.218952178955078 C 10.62322521209717 2.524085998535156 11.31161212921143 2.176654815673828 12 2.176654815673828 Z" stroke="none" fill="#000"/>
    </g>
  </g>
</svg>
